# xmcd CD database file
#
# Track frame offsets:
#	150
#	37179
#	59104
#	80621
#	96680
#	122441
#	134842
#	148768
#	162610
#	186403
#	206853
#	223970
#	234351
#	258928
#	279169
#	294565
#	321780
#
# Disc length: 4608 seconds
#
# Revision: 0
# Processed by: cddbd v1.5.2PL0 Copyright (c) Steve Scherf et al.
# Submitted via: CDex 1.70beta2
#
DISCID=2211fe11
DTITLE=Sueddeutsche Zeitung - Jazz - Folk Roots
DYEAR=2011
DGENRE=Jazz
TTITLE0=Jan Garbarek, Charlie Haden, Egberto Gismonti:
TTITLE1=Bill Frisell: One Of These Days
TTITLE2=Wynton Marsalis and Willie Nelson: Georgia On My Mind 
TTITLE3=Stephan Crump with Rosetta Trio: Shoes, Jump 
TTITLE4=Sonny Rollins - I'm An Old Cowhand
TTITLE5=Cassandra Wilson: You Gotta Move
TTITLE6=Norah Jones: Don't Know Why
TTITLE7=John Rae's Celtic Feet: The Napier Stride 
TTITLE8=Nils Landgren and Esbjörn Svensson: Gärdebylåten 
TTITLE9=Jan Johansson: Visa från Utanmyra
TTITLE10=Renaud Garcia-Fons: Eosine
TTITLE11=Didier Squiban: Image 4
TTITLE12=Kenny Barron and Mino Cinelu: Swamp Sally 
TTITLE13=Diknu Schneeberger Trio: First Love
TTITLE14=Arkady Shilkloper: Carnival 
TTITLE15=Rabih Abou-Khalil: The Happy Sheik
TTITLE16=Dieter Ilg: Guten Abend, Gute Nacht 
EXTD=YEAR: 2011
EXTT0=
EXTT1=
EXTT2=
EXTT3=
EXTT4=
EXTT5=
EXTT6=
EXTT7=
EXTT8=
EXTT9=
EXTT10=
EXTT11=
EXTT12=
EXTT13=
EXTT14=
EXTT15=
EXTT16=
PLAYORDER=
